<svg version="1.2" xmlns="http://www.w3.org/2000/svg" viewBox="0 0 300 300" width="300" height="300">
	<title>addbot-svg</title>
	<style>
		.s0 { fill: #2b2d31 } 
		.s1 { fill: #ffffff } 
		.s2 { fill: #95a5a6 } 
		.s3 { fill: #00a3a3 } 
		.s4 { fill: #ed4245 } 
		.s5 { fill: #4b4b4b } 
		.s6 { fill: #5b5b5b } 
	</style>
	<path id="форма 2" class="s0" d="m2 17c0-8.3 6.7-15 15-15h266c8.3 0 15 6.7 15 15v266c0 8.3-6.7 15-15 15h-266c-8.3 0-15-6.7-15-15z"/>
	<path id="форма 7" class="s1" d="m75 131c0-3.9 3.1-7 7-7h136c3.9 0 7 3.1 7 7 0 3.9-3.1 7-7 7h-136c-3.9 0-7-3.1-7-7z"/>
	<path id="форма 3" class="s2" d="m74.5 106c-23.5 0-42.5-19-42.5-42.5 0-23.5 19-42.5 42.5-42.5 23.5 0 42.5 19 42.5 42.5 0 23.5-19 42.5-42.5 42.5z"/>
	<path id="форма 8" class="s3" d="m21 252.5c0-11.3 9.2-20.5 20.5-20.5h216c11.3 0 20.5 9.2 20.5 20.5 0 11.3-9.2 20.5-20.5 20.5h-216c-11.3 0-20.5-9.2-20.5-20.5z"/>
	<path id="форма 4" class="s4" d="m224.5 107c-23.5 0-42.5-19-42.5-42.5 0-23.5 19-42.5 42.5-42.5 23.5 0 42.5 19 42.5 42.5 0 23.5-19 42.5-42.5 42.5z"/>
	<path id="форма 5" class="s5" d="m133.5 74c-2.5 0-4.5-2-4.5-4.5 0-2.5 2-4.5 4.5-4.5 2.5 0 4.5 2 4.5 4.5 0 2.5-2 4.5-4.5 4.5zm32 0c-2.5 0-4.5-2-4.5-4.5 0-2.5 2-4.5 4.5-4.5 2.5 0 4.5 2 4.5 4.5 0 2.5-2 4.5-4.5 4.5zm-16 0c-2.5 0-4.5-2-4.5-4.5 0-2.5 2-4.5 4.5-4.5 2.5 0 4.5 2 4.5 4.5 0 2.5-2 4.5-4.5 4.5z"/>
	<path id="форма 6" class="s6" d="m17 155c0-2.8 2.2-5 5-5h255c2.8 0 5 2.2 5 5 0 2.8-2.2 5-5 5h-255c-2.8 0-5-2.2-5-5zm0 20c0-2.8 2.2-5 5-5h255c2.8 0 5 2.2 5 5 0 2.8-2.2 5-5 5h-255c-2.8 0-5-2.2-5-5zm0 23c0-2.8 2.2-5 5-5h255c2.8 0 5 2.2 5 5 0 2.8-2.2 5-5 5h-255c-2.8 0-5-2.2-5-5z"/>
	<path id="Добавить бота" class="s1" aria-label="Добавить бота"  d="m63.6 264.2h2.5v-4.2h11.7v4.2h2.6v-6.4h-2v-15.3h-10.8l-0.4 7.4c-0.3 4.9-1.3 6.9-2.5 7.9h-1.1zm4.2-6.5c1-1.6 1.7-4.1 1.9-7.8l0.3-5.1h5.9v12.9zm20.7 2.5c3.7 0 6.1-2.7 6.1-6.7 0-4.1-2.4-6.8-6.1-6.8-3.7 0-6.1 2.7-6.1 6.8 0 4 2.4 6.7 6.1 6.7zm0-2.1c-2.4 0-3.6-2.1-3.6-4.6 0-2.6 1.2-4.7 3.6-4.7 2.4 0 3.5 2.1 3.5 4.7 0 2.5-1.1 4.6-3.5 4.6zm19-16.1c-0.6 0.5-1.6 0.5-3 0.5-0.4 0-0.8 0-1.3 0-4.2 0.1-6.4 3.1-6.4 9.1v1.3c0 4.8 2.4 7.3 6.1 7.3 3.6 0 6-2.5 6-6.6 0-4-2.3-6.2-5.5-6.2-1.9 0-3.5 0.8-4.3 2.4h-0.2c0.3-3.3 1.6-5 4.4-5.1 2.5 0 4.1 0 5.3-1.1zm-4.7 16.1c-2.1 0-3.4-1.7-3.4-4.4 0-2.7 1.3-4.2 3.4-4.2 2.2 0 3.5 1.5 3.5 4.2 0 2.7-1.3 4.4-3.5 4.4zm12.7 2.1c2.2 0 3.4-1.1 3.9-2h0.1v1.8h2.5v-8.7c0-3.8-3-4.6-5.1-4.6-2.4 0-4.6 1-5.4 3.3l2.4 0.6c0.4-0.9 1.3-1.8 3-1.8 1.7 0 2.5 0.8 2.5 2.3v0.1c0 0.9-0.9 0.9-3.3 1.1-2.5 0.3-5 1-5 4 0 2.5 1.9 3.9 4.4 3.9zm0.6-2c-1.5 0-2.5-0.6-2.5-1.9 0-1.4 1.2-1.9 2.7-2.1 0.8-0.1 2.8-0.3 3.1-0.6v1.6c0 1.6-1.2 3-3.3 3zm9.3 1.8h6.2c2.9 0 4.6-1.5 4.6-3.6 0-1.9-1.5-3.1-3.3-3.3 1.6-0.3 2.7-1.2 2.7-2.7 0-2.2-1.9-3.5-4.8-3.5h-5.4zm2.4-2.2v-3.6h3.8c1.3 0 2 0.7 2 2 0 1-0.7 1.6-2 1.6zm0-5.5v-3.3h3.1c1.4 0 2.3 0.6 2.3 1.6 0 1.1-0.9 1.7-2.3 1.7zm13.7 4.1v-9.5h-2.5v13.1h2.7l5.8-9.6v9.6h2.5v-13.1h-2.8zm10.4-7.3h4.2v10.8h2.5v-10.8h4.3v-2.2h-11zm16.2 2.3v-4.5h-2.5v13h5.7c3.2 0 5-1.8 5-4.3 0-2.5-1.8-4.2-5-4.2zm0 2.2h3.2c1.5 0 2.6 0.8 2.6 2.1 0 1.2-1.1 2.1-2.6 2.1h-3.2zm27.5-11.6c-0.6 0.5-1.6 0.5-2.9 0.5-0.4 0-0.9 0-1.3 0-4.3 0.1-6.4 3.1-6.4 9.1v1.3c0 4.8 2.4 7.3 6 7.3 3.7 0 6-2.5 6-6.6 0-4-2.3-6.3-5.4-6.3-1.9 0-3.5 0.9-4.4 2.5h-0.1c0.3-3.3 1.5-5 4.3-5.1 2.5 0 4.1 0 5.3-1.1zm-4.6 16.1c-2.2 0-3.5-1.8-3.5-4.5 0-2.6 1.3-4.1 3.5-4.1 2.1 0 3.4 1.5 3.4 4.1 0 2.8-1.3 4.5-3.4 4.5zm14.4 2.1c3.7 0 6.1-2.7 6.1-6.7 0-4.1-2.4-6.8-6.1-6.8-3.7 0-6.1 2.7-6.1 6.8 0 4 2.4 6.7 6.1 6.7zm0-2.1c-2.4 0-3.6-2.1-3.6-4.6 0-2.5 1.2-4.7 3.6-4.7 2.4 0 3.5 2.2 3.5 4.7 0 2.5-1.1 4.6-3.5 4.6zm7.3-9h4.3v10.9h2.5v-10.9h4.3v-2.2h-11.1zm17 11.1c2.1 0 3.4-1.1 3.8-2h0.1v1.8h2.5v-8.7c0-3.8-3-4.6-5.1-4.6-2.3 0-4.5 0.9-5.4 3.3l2.4 0.6c0.4-0.9 1.4-1.8 3.1-1.8 1.6 0 2.5 0.8 2.5 2.3v0.1c0 0.9-1 0.9-3.3 1.1-2.5 0.3-5.1 1-5.1 4 0 2.5 2 3.9 4.5 3.9zm0.5-2c-1.4 0-2.5-0.6-2.5-1.9 0-1.4 1.3-1.9 2.7-2.1 0.9-0.1 2.8-0.3 3.2-0.7v1.7c0 1.6-1.3 3-3.4 3z"/>
</svg>