<svg version="1.2" xmlns="http://www.w3.org/2000/svg" viewBox="0 0 300 300" width="300" height="300">
	<title>Новый проект</title>
	<style>
		.s0 { fill: #2b2d31 } 
		.s1 { fill: #ffffff } 
		.s2 { fill: #95a5a6 } 
		.s3 { fill: #5865f2 } 
		.s4 { fill: #ed4245 } 
		.s5 { fill: #4b4b4b } 
		.s6 { fill: #5b5b5b } 
	</style>
	<path id="форма 2" class="s0" d="m2 17c0-8.3 6.7-15 15-15h266c8.3 0 15 6.7 15 15v266c0 8.3-6.7 15-15 15h-266c-8.3 0-15-6.7-15-15z"/>
	<path id="форма 7" class="s1" d="m75 131c0-3.9 3.1-7 7-7h136c3.9 0 7 3.1 7 7 0 3.9-3.1 7-7 7h-136c-3.9 0-7-3.1-7-7z"/>
	<path id="форма 3" class="s2" d="m74.5 106c-23.5 0-42.5-19-42.5-42.5 0-23.5 19-42.5 42.5-42.5 23.5 0 42.5 19 42.5 42.5 0 23.5-19 42.5-42.5 42.5z"/>
	<path id="форма 8" class="s3" d="m21 252.5c0-11.3 9.2-20.5 20.5-20.5h216c11.3 0 20.5 9.2 20.5 20.5 0 11.3-9.2 20.5-20.5 20.5h-216c-11.3 0-20.5-9.2-20.5-20.5z"/>
	<path id="форма 4" class="s4" d="m224.5 107c-23.5 0-42.5-19-42.5-42.5 0-23.5 19-42.5 42.5-42.5 23.5 0 42.5 19 42.5 42.5 0 23.5-19 42.5-42.5 42.5z"/>
	<path id="форма 5" class="s5" d="m133.5 74c-2.5 0-4.5-2-4.5-4.5 0-2.5 2-4.5 4.5-4.5 2.5 0 4.5 2 4.5 4.5 0 2.5-2 4.5-4.5 4.5zm32 0c-2.5 0-4.5-2-4.5-4.5 0-2.5 2-4.5 4.5-4.5 2.5 0 4.5 2 4.5 4.5 0 2.5-2 4.5-4.5 4.5zm-16 0c-2.5 0-4.5-2-4.5-4.5 0-2.5 2-4.5 4.5-4.5 2.5 0 4.5 2 4.5 4.5 0 2.5-2 4.5-4.5 4.5z"/>
	<path id="форма 6" class="s6" d="m17 155c0-2.8 2.2-5 5-5h255c2.8 0 5 2.2 5 5 0 2.8-2.2 5-5 5h-255c-2.8 0-5-2.2-5-5zm0 20c0-2.8 2.2-5 5-5h255c2.8 0 5 2.2 5 5 0 2.8-2.2 5-5 5h-255c-2.8 0-5-2.2-5-5zm0 23c0-2.8 2.2-5 5-5h255c2.8 0 5 2.2 5 5 0 2.8-2.2 5-5 5h-255c-2.8 0-5-2.2-5-5z"/>
	<path id="Добавить на сервер" class="s1" aria-label="Добавить на сервер"  d="m50.5 262.5h2.1v-3.5h9.8v3.5h2.1v-5.4h-1.7v-12.6h-9l-0.3 6.1c-0.2 4-1.1 5.7-2 6.5h-1zm3.5-5.3c0.9-1.4 1.4-3.5 1.6-6.6l0.2-4.2h4.9v10.8zm17.3 2c3 0 5.1-2.2 5.1-5.6 0-3.4-2.1-5.6-5.1-5.6-3.1 0-5.1 2.2-5.1 5.6 0 3.4 2 5.6 5.1 5.6zm0-1.7c-2 0-3-1.8-3-3.9 0-2.1 1-3.9 3-3.9 2 0 2.9 1.8 2.9 3.9 0 2.1-0.9 3.9-2.9 3.9zm15.8-13.4c-0.5 0.4-1.3 0.4-2.4 0.4-0.4 0-0.7 0-1.1 0-3.6 0-5.4 2.6-5.4 7.5v1.1c0 4 2 6.1 5.1 6.1 3 0 5-2.1 5-5.5 0-3.3-1.9-5.2-4.6-5.2-1.6 0-2.9 0.7-3.6 2.1h-0.1c0.2-2.8 1.3-4.2 3.6-4.3 2.1 0 3.4 0 4.4-0.9zm-3.8 13.4c-1.8 0-2.9-1.4-2.9-3.7 0-2.2 1.1-3.5 2.8-3.5 1.8 0 2.9 1.3 2.9 3.5 0 2.3-1.1 3.7-2.8 3.7zm10.5 1.8c1.8 0 2.8-0.9 3.3-1.7v1.5h2.1v-7.3c0-3.2-2.5-3.8-4.2-3.8-2 0-3.8 0.8-4.5 2.8l2 0.5c0.3-0.8 1.1-1.6 2.5-1.6 1.4 0 2.1 0.8 2.1 2 0 0.8-0.8 0.8-2.8 1-2 0.3-4.2 0.8-4.2 3.3 0 2.1 1.7 3.3 3.7 3.3zm0.5-1.7c-1.2 0-2.1-0.5-2.1-1.6 0-1.1 1-1.5 2.3-1.7 0.6-0.1 2.3-0.3 2.6-0.6v1.4c0 1.3-1 2.5-2.8 2.5zm7.7 1.5h5.3c2.3 0 3.7-1.2 3.7-3 0-1.6-1.2-2.6-2.7-2.8 1.4-0.2 2.3-1 2.3-2.2 0-1.8-1.6-2.9-4-2.9h-4.6zm2-1.8v-3.1h3.3c1 0 1.6 0.7 1.6 1.7 0 0.8-0.6 1.4-1.6 1.4zm0-4.6v-2.8h2.5c1.2 0 1.9 0.5 1.9 1.4 0 0.9-0.7 1.4-1.9 1.4zm11.4 3.4v-8h-2.1v11h2.3l4.8-8v8h2.1v-11h-2.3zm8.6-6.1h3.6v9.1h2.1v-9.1h3.5v-1.8h-9.2zm13.5 1.9v-3.7h-2v10.9h4.7c2.7 0 4.2-1.6 4.2-3.6 0-2.1-1.5-3.6-4.2-3.6zm0 1.9h2.7c1.2 0 2.1 0.7 2.1 1.8 0 0.9-0.9 1.7-2.1 1.7h-2.7zm16.6-5.6h-2v10.9h2v-4.5h4.8v4.5h2v-10.9h-2v4.5h-4.8zm12.8 11.2c1.8 0 2.9-1 3.3-1.8h0.1v1.5h2v-7.2c0-3.2-2.5-3.8-4.2-3.8-2 0-3.8 0.8-4.5 2.8l2 0.4c0.3-0.8 1.1-1.5 2.5-1.5 1.4 0 2.1 0.7 2.1 1.9v0.1c0 0.8-0.8 0.8-2.8 1-2 0.2-4.1 0.8-4.1 3.2 0 2.2 1.6 3.4 3.6 3.4zm0.5-1.7c-1.2 0-2.1-0.6-2.1-1.6 0-1.2 1-1.6 2.3-1.7 0.7-0.1 2.3-0.3 2.6-0.6v1.4c0 1.3-1 2.5-2.8 2.5zm17.6 1.6c2.6 0 4.3-1.5 4.5-3.6h-2c-0.3 1.2-1.2 1.8-2.4 1.8-1.8 0-3-1.5-3-3.8 0-2.4 1.2-3.8 3-3.8 1.3 0 2.1 0.8 2.4 1.8h2c-0.2-2.2-2-3.6-4.5-3.6-3.1 0-5 2.3-5 5.6 0 3.3 1.9 5.6 5 5.6zm11.5 0c2.4 0 4.1-1.1 4.6-2.9l-2.1-0.4c-0.3 1.1-1.3 1.6-2.5 1.6-1.8 0-3-1.2-3.1-3.3h7.8v-0.7c0-4-2.4-5.5-4.8-5.5-3.1 0-5.1 2.3-5.1 5.6 0 3.4 2 5.6 5.2 5.6zm-3.1-6.6c0.1-1.5 1.2-2.9 3-2.9 1.6 0 2.7 1.2 2.7 2.9zm10.1 10.5h2.1v-5.8h0.2c0.4 0.7 1.1 1.9 3.1 1.9 2.7 0 4.6-2.1 4.6-5.6 0-3.5-2-5.6-4.6-5.6-2 0-2.8 1.2-3.1 1.9h-0.2v-1.8h-2.1zm2.1-9.5c0-2.3 1-3.8 2.8-3.8 2 0 2.9 1.6 2.9 3.8 0 2.2-1 3.8-2.9 3.8-1.8 0-2.8-1.5-2.8-3.8zm10.3 5.4h5.2c2.4 0 3.8-1.2 3.8-2.9 0-1.6-1.3-2.6-2.7-2.8 1.3-0.3 2.2-1 2.2-2.3 0-1.8-1.6-2.9-4-2.9h-4.5zm2-1.8v-3h3.2c1 0 1.7 0.6 1.7 1.6 0 0.9-0.7 1.4-1.7 1.4zm0-4.5v-2.8h2.5c1.2 0 1.9 0.5 1.9 1.3 0 0.9-0.7 1.5-1.9 1.5zm14.1 6.5c2.3 0 4-1.1 4.5-2.9l-2-0.4c-0.4 1.1-1.3 1.6-2.5 1.6-1.8 0-3.1-1.2-3.1-3.3h7.7v-0.8c0-3.9-2.3-5.4-4.8-5.4-3 0-5 2.3-5 5.6 0 3.4 1.9 5.6 5.2 5.6zm-3.1-6.6c0.1-1.5 1.2-2.9 2.9-2.9 1.7 0 2.7 1.2 2.8 2.9zm10.1 10.5h2.1v-5.8h0.1c0.4 0.7 1.2 1.9 3.2 1.9 2.6 0 4.5-2.1 4.5-5.6 0-3.6-1.9-5.6-4.5-5.6-2.1 0-2.8 1.2-3.2 1.9h-0.2v-1.8h-2zm2-9.5c0-2.3 1-3.8 2.9-3.8 1.9 0 2.9 1.6 2.9 3.8 0 2.1-1 3.8-2.9 3.8-1.8 0-2.9-1.5-2.9-3.8z"/>
</svg>